<?xml version="1.0" standalone="no"?>
<!DOCTYPE svg PUBLIC "-//W3C//DTD SVG 20010904//EN"
 "http://www.w3.org/TR/2001/REC-SVG-20010904/DTD/svg10.dtd">
<svg version="1.0" xmlns="http://www.w3.org/2000/svg"
 width="512.000000pt" height="512.000000pt" viewBox="0 0 512.000000 512.000000"
 preserveAspectRatio="xMidYMid meet">
<metadata>
Created by potrace 1.11, written by Peter Selinger 2001-2013
</metadata>
<g transform="translate(0.000000,512.000000) scale(0.100000,-0.100000)"
fill="#000000" stroke="none">
<path d="M3972 4479 c-142 -25 -329 -111 -487 -224 -99 -71 -350 -290 -425
-372 -58 -63 -75 -107 -65 -171 14 -93 117 -153 210 -122 24 8 86 59 183 152
235 224 411 346 575 398 104 33 221 26 311 -19 88 -45 192 -149 237 -237 33
-66 34 -72 34 -179 -1 -100 -4 -117 -33 -191 -71 -179 -193 -347 -457 -627
-231 -245 -328 -374 -400 -530 -86 -187 -90 -379 -10 -537 61 -121 188 -232
318 -278 99 -35 238 -37 347 -3 84 25 196 79 283 135 142 91 441 356 474 420
35 68 4 176 -60 208 -96 49 -139 34 -280 -95 -217 -198 -302 -262 -433 -324
-140 -67 -234 -56 -318 37 -70 77 -80 132 -46 241 39 128 137 261 375 514 233
247 349 396 441 570 206 386 169 733 -107 1007 -156 154 -314 227 -509 233
-58 2 -129 0 -158 -6z"/>
<path d="M1810 3875 c-182 -30 -400 -124 -547 -234 -43 -32 -140 -121 -215
-197 l-138 -139 400 -400 400 -400 111 111 111 111 -16 47 c-22 66 -20 154 5
223 19 51 41 77 178 214 172 172 213 198 317 207 43 3 79 -1 119 -13 l56 -18
115 114 c63 62 114 117 114 122 0 13 -148 105 -235 146 -102 49 -218 86 -331
105 -107 19 -336 20 -444 1z"/>
<path d="M2927 3272 l-118 -118 12 -47 c16 -66 7 -142 -25 -212 -22 -48 -56
-88 -174 -206 -169 -168 -207 -191 -319 -197 -40 -2 -87 1 -105 7 l-32 11
-116 -115 -115 -115 402 -402 403 -403 81 80 c251 248 362 408 437 632 48 143
65 250 65 408 0 217 -45 407 -141 596 -47 92 -117 199 -131 199 -3 0 -59 -53
-124 -118z"/>
<path d="M2415 3230 c-49 -11 -64 -23 -197 -157 -138 -140 -152 -166 -129
-242 15 -52 116 -147 164 -156 66 -13 103 9 235 139 68 66 130 133 138 148 8
15 14 50 14 79 0 49 -2 53 -63 116 -66 68 -104 85 -162 73z"/>
<path d="M529 2923 c-107 -109 -211 -220 -231 -248 -278 -394 -323 -875 -125
-1316 56 -123 170 -282 273 -379 267 -252 589 -372 953 -357 197 9 351 47 520
131 157 78 274 171 506 405 l130 131 -915 915 -915 915 -196 -197z"/>
</g>
</svg>
